<svg xmlns="http://www.w3.org/2000/svg" width="17" height="17" fill="none">
  <path fill="#666d70" d="M13.02 8.489c-.032.591-.255 1.261-1.348 1.596-1.828.569-2.876 1.841-3.267 2.232-.49.491-.88 1.172-1.148 2.11C6.923 15.586 6.622 16 5.562 16c-.88 0-1.583-.703-1.583-1.574 0-.87.513-1.462 1.572-1.573 2.498-.28 4.315-1.931 4.315-4.32v-.066c0-2.389-1.817-4.04-4.315-4.32-1.059-.111-1.572-.703-1.572-1.573S4.682 1 5.551 1c1.06 0 1.55.603 1.717 1.574.134.803.636 1.618 1.126 2.109.402.39 1.438 1.663 3.267 2.232 1.092.346 1.315 1.005 1.349 1.596V8.49h.01Z" />
  <path fill="#666d70" d="M5.128 10.085h.334c.848 0 1.583-.636 1.64-1.485a1.575 1.575 0 0 0-1.573-1.674s-.345-.01-.435 0a.726.726 0 0 0-.669.636c-.066.48-.066 1.373 0 1.83.045.38.313.648.703.693Z" />
</svg>