<svg width="17" height="17" fill="none" xmlns="http://www.w3.org/2000/svg"><path d="m7.627 14.129-2.493-1.034-1.63 1.632 4.123 1.709v-2.307ZM2.858 9.37H.561l1.71 4.123 1.623-1.623-1.036-2.5ZM3.9 5.132l-1.63-1.63L.561 7.623h2.307l1.033-2.492ZM7.627 2.856V.56L3.503 2.267l1.623 1.624 1.252-.514 1.248-.52ZM16.439 7.624l-1.71-4.123-1.623 1.623 1.035 2.5h2.298ZM9.372 2.865l2.493 1.033 1.631-1.63L9.372.56v2.306ZM14.132 9.37l-1.033 2.493 1.63 1.63 1.71-4.123h-2.307ZM9.372 14.14v2.296l4.124-1.709-1.623-1.624-2.501 1.037ZM11.341 5.656 8.499 4.479 5.66 5.656l-1.177 2.84 1.177 2.842 2.84 1.177 2.842-1.176 1.177-2.841-1.177-2.842Z" stroke="#CF113F" stroke-width=".75"/></svg>