<svg xmlns="http://www.w3.org/2000/svg" width="17" height="17" fill="none"><path stroke="#CF113F" stroke-width=".75" d="M9.853 8.8c.202.086.4.163.598.24l.27.106c.281.112.563.231.812.373.248.142.483.319.656.555.179.244.278.533.278.873 0 1.018-.81 1.664-1.738 1.664H9.227V13.402h-6.52V12.611h-.832v1.88h8.884l.182-.002c2.315-.039 4.184-1.496 4.184-3.86 0-.952-.277-1.588-.673-2.046-.404-.469-.957-.782-1.56-1.041l-.002-.002c-.25-.11-.502-.207-.752-.304l-.13-.05a8.932 8.932 0 0 1-.824-.355c-.486-.25-.977-.625-.977-1.29 0-.838.78-1.397 1.495-1.397.66 0 1.258.284 1.74.656l1.004-1.355c-.897-.628-2.23-.937-3.328-.937-2.024 0-3.423 1.454-3.423 3.496 0 .874.267 1.438.645 1.845.39.42.925.699 1.513.95Z"/></svg>