<svg xmlns="http://www.w3.org/2000/svg" width="17" height="17" fill="none"><path fill="#666d70" d="M5.481 7.35c-.91 0-1.63-.218-2.159-.656-.527-.437-.818-1.021-.873-1.75h1.38c.045.41.212.733.499.97.286.237.671.355 1.153.355.465 0 .831-.101 1.1-.3.27-.201.403-.456.403-.765 0-.246-.09-.43-.266-.554-.178-.123-.508-.243-.99-.362a4.991 4.991 0 0 1-.266-.06 3.14 3.14 0 0 0-.28-.062c-.566-.117-1.023-.258-1.374-.417-.351-.16-.623-.368-.812-.628-.192-.26-.287-.594-.287-1.004 0-.428.114-.804.342-1.127a2.13 2.13 0 0 1 .956-.738C4.417.083 4.889 0 5.427 0c.811 0 1.454.194 1.927.58.474.388.751.936.833 1.647h-1.34c-.045-.364-.19-.647-.43-.846-.242-.199-.572-.3-.991-.3-.4 0-.727.088-.977.26-.25.173-.376.4-.376.683 0 .247.11.43.329.547.218.117.605.24 1.16.368.037.01.073.015.11.02a.544.544 0 0 1 .096.022c.618.127 1.111.269 1.476.423.364.155.645.368.84.641.196.273.294.628.294 1.066 0 .437-.116.826-.349 1.161-.231.338-.567.602-1.004.793-.436.188-.952.285-1.544.285ZM10.795 7.13 8.036.218h1.408l2.036 5.273L13.514.218h1.407l-2.76 6.912h-1.366ZM1.985 16.799V7.94h1.26v.955c.255-.364.57-.65.942-.852a2.533 2.533 0 0 1 1.234-.306c.577 0 1.093.147 1.547.438.455.294.805.698 1.05 1.216.246.518.37 1.107.37 1.77 0 .661-.124 1.252-.37 1.77a2.882 2.882 0 0 1-1.05 1.216 2.785 2.785 0 0 1-1.547.438c-.449 0-.86-.102-1.234-.306a2.743 2.743 0 0 1-.942-.852V16.8h-1.26v-.002Zm3.17-3.31c.39 0 .731-.094 1.025-.28.293-.186.518-.455.675-.807.157-.352.235-.765.235-1.241 0-.712-.173-1.28-.521-1.699-.349-.42-.819-.63-1.413-.63-.585 0-1.05.211-1.393.63-.343.42-.516.987-.516 1.699 0 .476.078.89.235 1.241.157.352.38.622.668.808.287.187.623.28 1.004.28ZM11.897 17c-.789 0-1.455-.19-1.998-.566-.543-.378-.852-.923-.93-1.635h1.298c.085.4.274.693.566.884.291.19.659.286 1.1.286.365 0 .683-.067.955-.203.273-.136.485-.336.637-.597.152-.264.23-.582.23-.955V13.17a2.593 2.593 0 0 1-2.164 1.108c-.576 0-1.09-.137-1.535-.413a2.81 2.81 0 0 1-1.043-1.158c-.25-.497-.374-1.063-.374-1.699 0-.628.125-1.192.374-1.694.251-.5.598-.889 1.043-1.165.446-.275.957-.413 1.535-.413.449 0 .86.097 1.234.293.373.195.682.463.93.803v-.896h1.26v6.224c0 .57-.129 1.068-.389 1.495a2.605 2.605 0 0 1-1.094.994c-.47.233-1.015.35-1.635.35Zm-.037-3.769c.373 0 .703-.09.993-.274.288-.182.51-.438.668-.77.158-.331.235-.726.235-1.185 0-.688-.17-1.23-.509-1.63-.34-.4-.802-.598-1.387-.598-.594 0-1.063.202-1.408.605-.342.403-.516.944-.516 1.623 0 .458.078.852.235 1.184.158.33.38.587.668.771.29.184.63.274 1.02.274Z"/></svg>