<svg xmlns="http://www.w3.org/2000/svg" width="17" height="17" fill="none"><path fill="#666d70" d="M15.86 4.446V4.25l-.169-.098L8.67.098 8.5 0l-.17.098L1.31 4.152l-.17.098v8.5l.17.098 7.021 4.054.17.098.17-.098 7.021-4.054.17-.098V4.446ZM1.817 8.5V4.641l5.758-3.323-1.709 2.958-1.262 2.186-2.787 4.828V8.5Zm6.345 7.521-6.22-3.59L8.16 1.655V16.02Zm.677-14.364L12.789 8.5l-3.951 6.844V1.657Zm.587 14.025 1.708-2.96 2.048-3.545 1.878 3.252-5.634 3.253ZM15.183 8.5v2.79l-4.05-7.014-1.708-2.958 5.758 3.323V8.5Z"/></svg>