<svg xmlns="http://www.w3.org/2000/svg" width="17" height="17" fill="none"><g clip-path="url(#a)"><path fill="#666d70" d="M16.837.466A24.401 24.401 0 0 0 14.34.402c-1.195.01-2.31.121-2.537.148l-.127.016-.06.539c-.194.02-.333.037-.398.045l-.42 4.12.062-.006c.013 0 .025.002.037.005.03.002.06.007.09.016a.27.27 0 0 1 .179.132c.09.163.068.384-.01.653l-.58 2.124-.4-1.869a1.48 1.48 0 0 1 .042-.79.404.404 0 0 1 .174-.194.289.289 0 0 1 .068-.026l.105-.027.5-4.68-.194.02c-.258.027-1.227.138-2.264.353-.953.2-1.785.432-1.958.48l-.1.031-.065.57c-.2.065-.343.114-.404.136l-.484 4.259.042-.01h.026a.054.054 0 0 1 .021-.006.27.27 0 0 1 .058.01.376.376 0 0 1 .19.143.452.452 0 0 1 .073.295 1.34 1.34 0 0 1-.031.184 6.34 6.34 0 0 1-.053.232l-.534 2.22-.392-1.805c-.059-.247-.053-.637.031-.816.116-.258.263-.332.3-.347l.09-.032.5-4.885-.237.084c-.137.047-.458.163-.864.332-.654.263-1.29.573-1.9.926-.48.28-.941.59-1.38.932-.284.216-.473.38-.526.421l-.047.042-.06.57c-.217.188-.372.335-.42.378L0 9.837l.09-.058a1.7 1.7 0 0 1 .226-.105.68.68 0 0 1 .421-.037c.195.058.258.168.332.41l2.222 6.555.058-.095c.979-1.595 2.216-2.285 3.727-2.737l.026-.01.06-.28c.145-.038.292-.073.44-.105l.1-.027.427-2.149.542 2.328a9.118 9.118 0 0 1 1.953-.115c.736.041 1.467.156 2.18.342l.107-.35c.118.033.203.06.251.076l.153.047L15.7 5.81c.022-.098.05-.195.084-.29a.856.856 0 0 1 .258-.4.575.575 0 0 1 .353-.1l.137-.005L17 .481l-.163-.015Zm-.59 4.248a.878.878 0 0 0-.384.148 1.175 1.175 0 0 0-.374.547c-.04.104-.072.212-.095.321l-2.29 7.403a11.15 11.15 0 0 0-2.474-.39c-.49-.03-.98-.025-1.47.016L8.23 9.063l-.795 4.022c-1.527.348-2.954.943-3.949 2.175L1.66 9.63a2.776 2.776 0 0 0-.069-.189.831.831 0 0 0-.095-.195.704.704 0 0 0-.39-.29.794.794 0 0 0-.305-.03l.469-4.392c.079-.068.237-.205.458-.374.43-.33.88-.634 1.348-.91.6-.343 1.222-.644 1.863-.9.243-.1.453-.185.617-.243L5.123 6.31a1.02 1.02 0 0 0-.385.463c-.12.263-.115.732-.052 1.016l.837 3.743 1.137-4.38c.016-.085.037-.158.053-.221.015-.066.025-.133.031-.2a.788.788 0 0 0-.105-.448.666.666 0 0 0-.274-.279L6.84 1.74c.29-.085 1.016-.28 1.832-.448A23.27 23.27 0 0 1 10.71.966l-.432 4.08-.032.016a.742.742 0 0 0-.31.342c-.132.284-.132.721-.063.995l.779 3.633 1.258-4.252c.095-.31.074-.516-.053-.753a.555.555 0 0 0-.326-.263L11.962.85a30.617 30.617 0 0 1 4.69-.084l-.405 3.948Z"/></g><defs><clipPath id="a"><path fill="#fff" d="M0 .398h17v16.204H0z"/></clipPath></defs></svg>